<svg height="456pt" viewBox="0 -8 456 456" width="456pt" xmlns="http://www.w3.org/2000/svg"><path d="m272 176h112c4.417969 0 8-3.582031 8-8v-40c0-4.417969-3.582031-8-8-8h-112c-4.417969 0-8 3.582031-8 8v40c0 4.417969 3.582031 8 8 8zm8-40h96v24h-96zm0 0"/><path d="m272 248h40c4.417969 0 8-3.582031 8-8v-40c0-4.417969-3.582031-8-8-8h-40c-4.417969 0-8 3.582031-8 8v40c0 4.417969 3.582031 8 8 8zm8-40h24v24h-24zm0 0"/><path d="m384 192h-40c-4.417969 0-8 3.582031-8 8v40c0 4.417969 3.582031 8 8 8h40c4.417969 0 8-3.582031 8-8v-40c0-4.417969-3.582031-8-8-8zm-8 40h-24v-24h24zm0 0"/><path d="m384 264h-40c-4.417969 0-8 3.582031-8 8v40c0 4.417969 3.582031 8 8 8h40c4.417969 0 8-3.582031 8-8v-40c0-4.417969-3.582031-8-8-8zm-8 40h-24v-24h24zm0 0"/><path d="m272 320h40c4.417969 0 8-3.582031 8-8v-40c0-4.417969-3.582031-8-8-8h-40c-4.417969 0-8 3.582031-8 8v40c0 4.417969 3.582031 8 8 8zm8-40h24v24h-24zm0 0"/><path d="m368 72c4.417969 0 8-3.582031 8-8-.039062-35.328125-28.671875-63.9609375-64-64h-201.601562c-34.445313.0390625-62.359376 27.953125-62.398438 62.398438v305.601562h-40c-4.417969 0-8 3.582031-8 8v7.199219c.0507812 27.503906 19.441406 51.179687 46.398438 56.640625.527343.105468 1.0625.160156 1.601562.160156h208c.289062-.03125.578125-.078125.863281-.144531.257813 0 .480469.144531.738281.144531 34.445313-.039062 62.359376-27.953125 62.398438-62.398438v-25.601562h96c4.417969 0 8-3.582031 8-8v-217.136719c15.097656-3.867187 25.199219-18.070312 23.898438-33.601562-1.304688-15.535157-13.625-27.855469-29.160157-29.160157-15.53125-1.300781-29.734375 8.800782-33.601562 23.898438h-65.136719v-16zm-48-55.273438c20.117188 3.417969 35.886719 19.160157 39.335938 39.273438h-39.335938zm-271.199219 407.273438c-18.847656-4.179688-32.394531-20.699219-32.800781-40h200v1.246094c-.046875 14.320312 5.257812 28.140625 14.871094 38.753906zm255.199219-46.398438c-.019531 25.511719-20.621094 46.230469-46.136719 46.398438l-2.785156-1.390625c-14.1875-7.03125-23.144531-21.523437-23.078125-37.363281v-9.246094c0-4.417969-3.582031-8-8-8h-160v-305.601562c.03125-25.613282 20.785156-46.367188 46.398438-46.398438h193.601562v72h-64c-4.417969 0-8 3.582031-8 8h-64c-4.417969 0-8 3.582031-8 8v72h-72c-4.417969 0-8 3.582031-8 8v160c0 4.417969 3.582031 8 8 8h216zm-112-201.601562h-16v-32h56v32zm40 16v144h-32v-144zm-56 16c-13.253906 0-24 10.746094-24 24s10.746094 24 24 24h8v16h-88v-80h88v16zm8 16v16h-8c-4.417969 0-8-3.582031-8-8s3.582031-8 8-8zm-88 80v-16h88v16zm88 16v16h-88v-16zm-8-192v-16h56v16zm240-48c8.835938 0 16 7.164062 16 16s-7.164062 16-16 16-16-7.164062-16-16 7.164062-16 16-16zm-30.863281 24c2.925781 11.195312 11.667969 19.9375 22.863281 22.863281v209.136719h-160v-232zm0 0"/><path d="m100.425781 119.199219 11.574219 5.746093v11.054688c0 4.417969 3.582031 8 8 8s8-3.582031 8-8v-11.054688l11.574219-5.785156c2.714843-1.355468 4.425781-4.128906 4.425781-7.160156v-16c0-3.03125-1.710938-5.804688-4.425781-7.160156l-27.574219-13.785156v-6.109376l8-4 8 4v3.054688c0 4.417969 3.582031 8 8 8s8-3.582031 8-8v-8c0-3.03125-1.710938-5.804688-4.425781-7.160156l-11.574219-5.785156v-11.054688c0-4.417969-3.582031-8-8-8s-8 3.582031-8 8v11.054688l-11.574219 5.785156c-2.714843 1.355468-4.425781 4.128906-4.425781 7.160156v16c0 3.03125 1.710938 5.804688 4.425781 7.160156l27.574219 13.785156v6.109376l-8 4-8-4v-3.054688c0-4.417969-3.582031-8-8-8s-8 3.582031-8 8v8c-.015625 3.046875 1.699219 5.839844 4.425781 7.199219zm0 0"/><path d="m376 368h16v16h-16zm0 0"/><path d="m408 368h16v16h-16zm0 0"/><path d="m440 368h16v16h-16zm0 0"/><path d="m440 336h16v16h-16zm0 0"/><path d="m440 304h16v16h-16zm0 0"/><path d="m208 56h16v16h-16zm0 0"/><path d="m240 56h16v16h-16zm0 0"/><path d="m272 56h16v16h-16zm0 0"/></svg>