<svg xmlns="http://www.w3.org/2000/svg" width="24.039" height="26.537" viewBox="0 0 24.039 26.537">
  <g id="Icon_feather-package" data-name="Icon feather-package" transform="translate(-3.463 -1.967)">
    <path id="Path_48097" data-name="Path 48097" d="M22.233,12.648,11.25,6.315" transform="translate(-1.259 -0.618)" fill="none" stroke="#4c5350" stroke-linecap="round" stroke-linejoin="round" stroke-width="2"/>
    <path id="Path_48098" data-name="Path 48098" d="M26.465,20.085V10.322a2.441,2.441,0,0,0-1.22-2.111L16.7,3.33a2.441,2.441,0,0,0-2.441,0L5.72,8.211A2.441,2.441,0,0,0,4.5,10.322v9.762A2.441,2.441,0,0,0,5.72,22.2l8.542,4.881a2.441,2.441,0,0,0,2.441,0L25.245,22.2a2.441,2.441,0,0,0,1.22-2.111Z" fill="none" stroke="#4c5350" stroke-linecap="round" stroke-linejoin="round" stroke-width="2"/>
    <path id="Path_48099" data-name="Path 48099" d="M4.905,10.44,15.558,16.6,26.211,10.44" transform="translate(-0.076 -1.387)" fill="none" stroke="#4c5350" stroke-linecap="round" stroke-linejoin="round" stroke-width="2"/>
    <path id="Path_48100" data-name="Path 48100" d="M18,30.3V18" transform="translate(-2.517 -2.797)" fill="none" stroke="#4c5350" stroke-linecap="round" stroke-linejoin="round" stroke-width="2"/>
  </g>
</svg>
