<svg xmlns="http://www.w3.org/2000/svg" width="27.447" height="22.887" viewBox="0 0 27.447 22.887">
  <g id="Icon_feather-users" data-name="Icon feather-users" transform="translate(-0.5 -3.434)">
    <path id="Path_48090" data-name="Path 48090" d="M20.007,29.44V27.127A4.627,4.627,0,0,0,15.38,22.5H6.127A4.627,4.627,0,0,0,1.5,27.127V29.44" transform="translate(0 -4.12)" fill="none" stroke="#4c5350" stroke-linecap="round" stroke-linejoin="round" stroke-width="2"/>
    <path id="Path_48091" data-name="Path 48091" d="M16.754,9.127A4.627,4.627,0,1,1,12.127,4.5a4.627,4.627,0,0,1,4.627,4.627Z" transform="translate(-1.373)" fill="none" stroke="#4c5350" stroke-linecap="round" stroke-linejoin="round" stroke-width="2"/>
    <path id="Path_48092" data-name="Path 48092" d="M33.47,29.485V27.171A4.627,4.627,0,0,0,30,22.7" transform="translate(-6.523 -4.164)" fill="none" stroke="#4c5350" stroke-linecap="round" stroke-linejoin="round" stroke-width="2"/>
    <path id="Path_48093" data-name="Path 48093" d="M24,4.7a4.627,4.627,0,0,1,0,8.964" transform="translate(-5.15 -0.045)" fill="none" stroke="#4c5350" stroke-linecap="round" stroke-linejoin="round" stroke-width="2"/>
  </g>
</svg>
