<svg xmlns="http://www.w3.org/2000/svg" xmlns:xlink="http://www.w3.org/1999/xlink" width="24" height="24" viewBox="0 0 24 24">
  <defs>
    <clipPath id="clip-path">
      <rect id="Rectangle_9" data-name="Rectangle 9" width="24" height="24" transform="translate(89 170)" fill="#4c5350"/>
    </clipPath>
  </defs>
  <g id="Mask_Group_1" data-name="Mask Group 1" transform="translate(-89 -170)" clip-path="url(#clip-path)">
    <g id="dashboard_1_" data-name="dashboard (1)" transform="translate(89 170)">
      <path id="Path_16" data-name="Path 16" d="M9.25,8H1.75A1.752,1.752,0,0,1,0,6.25V1.75A1.752,1.752,0,0,1,1.75,0h7.5A1.752,1.752,0,0,1,11,1.75v4.5A1.752,1.752,0,0,1,9.25,8ZM1.75,1.5a.25.25,0,0,0-.25.25v4.5a.25.25,0,0,0,.25.25h7.5a.25.25,0,0,0,.25-.25V1.75a.25.25,0,0,0-.25-.25Zm0,0" fill="#4c5350"/>
      <path id="Path_17" data-name="Path 17" d="M9.25,24H1.75A1.752,1.752,0,0,1,0,22.25V11.75A1.752,1.752,0,0,1,1.75,10h7.5A1.752,1.752,0,0,1,11,11.75v10.5A1.752,1.752,0,0,1,9.25,24ZM1.75,11.5a.25.25,0,0,0-.25.25v10.5a.25.25,0,0,0,.25.25h7.5a.25.25,0,0,0,.25-.25V11.75a.25.25,0,0,0-.25-.25Zm0,0" fill="#4c5350"/>
      <path id="Path_18" data-name="Path 18" d="M22.25,24h-7.5A1.752,1.752,0,0,1,13,22.25v-4.5A1.752,1.752,0,0,1,14.75,16h7.5A1.752,1.752,0,0,1,24,17.75v4.5A1.752,1.752,0,0,1,22.25,24Zm-7.5-6.5a.25.25,0,0,0-.25.25v4.5a.25.25,0,0,0,.25.25h7.5a.25.25,0,0,0,.25-.25v-4.5a.25.25,0,0,0-.25-.25Zm0,0" fill="#4c5350"/>
      <path id="Path_19" data-name="Path 19" d="M22.25,14h-7.5A1.752,1.752,0,0,1,13,12.25V1.75A1.752,1.752,0,0,1,14.75,0h7.5A1.752,1.752,0,0,1,24,1.75v10.5A1.752,1.752,0,0,1,22.25,14ZM14.75,1.5a.25.25,0,0,0-.25.25v10.5a.25.25,0,0,0,.25.25h7.5a.25.25,0,0,0,.25-.25V1.75a.25.25,0,0,0-.25-.25Zm0,0" fill="#4c5350"/>
    </g>
  </g>
</svg>
