<svg xmlns="http://www.w3.org/2000/svg" width="21.907" height="21.907" viewBox="0 0 21.907 21.907">
  <g id="Icon_feather-eye-off" data-name="Icon feather-eye-off" transform="translate(-0.439 -0.439)">
    <path id="Path_48078" data-name="Path 48078" d="M16.735,18.537a9.056,9.056,0,0,1-5.342,1.853c-6.3,0-9.893-7.195-9.893-7.195A16.593,16.593,0,0,1,6.051,7.853M9.5,6.216A8.2,8.2,0,0,1,11.393,6c6.3,0,9.893,7.195,9.893,7.195a16.638,16.638,0,0,1-1.943,2.869M13.3,15.1a2.7,2.7,0,1,1-3.813-3.813" transform="translate(0 -1.802)" fill="none" stroke="#d90000" stroke-linecap="round" stroke-linejoin="round" stroke-width="1.5"/>
    <path id="Path_48079" data-name="Path 48079" d="M1.5,1.5,21.286,21.286" fill="none" stroke="#d90000" stroke-linecap="round" stroke-linejoin="round" stroke-width="1.5"/>
  </g>
</svg>
