<svg xmlns="http://www.w3.org/2000/svg" width="20.836" height="20.836" viewBox="0 0 20.836 20.836">
  <g id="Icon_feather-headphones" data-name="Icon feather-headphones" transform="translate(-3.5 -3.5)">
    <path id="Path_48103" data-name="Path 48103" d="M4.5,20.2V13.918a9.418,9.418,0,1,1,18.836,0V20.2" transform="translate(0 0)" fill="none" stroke="#4c5350" stroke-linecap="round" stroke-linejoin="round" stroke-width="2"/>
    <path id="Path_48104" data-name="Path 48104" d="M23.336,26.232a2.093,2.093,0,0,1-2.093,2.093H20.2A2.093,2.093,0,0,1,18.1,26.232V23.093A2.093,2.093,0,0,1,20.2,21h3.139Zm-18.836,0a2.093,2.093,0,0,0,2.093,2.093H7.639a2.093,2.093,0,0,0,2.093-2.093V23.093A2.093,2.093,0,0,0,7.639,21H4.5Z" transform="translate(0 -4.989)" fill="none" stroke="#4c5350" stroke-linecap="round" stroke-linejoin="round" stroke-width="2"/>
  </g>
</svg>
