<?xml version="1.0" encoding="iso-8859-1"?>
<!-- Generator: Adobe Illustrator 19.0.0, SVG Export Plug-In . SVG Version: 6.00 Build 0)  -->
<svg version="1.1" id="Capa_1" xmlns="http://www.w3.org/2000/svg" xmlns:xlink="http://www.w3.org/1999/xlink" x="0px" y="0px"
	 viewBox="0 0 502.688 502.688" style="enable-background:new 0 0 502.688 502.688;" xml:space="preserve">
<g>
	<g>
		<g>
			<path style="fill:#010002;" d="M263.978,148.138h-13.029v9.017l-12.727,0.022v-8.995l-14.043,0.043v8.995l-12.705,0.022v-9.017
				l-12.727,0.043v8.995l-12.684,0.043l-0.043-8.995l-20.082,0.086c-7.075-22.369-25.863-38.482-48.189-38.461
				c-28.322,0.065-51.209,25.95-51.144,57.68c0.065,31.817,23.081,57.529,51.36,57.529c22.326-0.108,41.071-16.243,48.06-38.612
				l98.082-0.28l13.46-18.702L263.978,148.138z M101.722,180.581c-7.183,0.022-13.029-5.803-13.029-13.007
				c0-7.118,5.803-13.029,12.964-13.029c7.226-0.043,13.072,5.824,13.072,13.007C114.73,174.757,108.949,180.581,101.722,180.581z"
				/>
			<path style="fill:#010002;" d="M502.68,431.298L351.814,280.432l-19.586,11.864l-29.552-28.624
				c46.55-65.187,40.769-156.28-17.753-214.802c-65.23-65.165-170.884-65.122-236.049,0s-65.165,170.819,0,236.006
				c58.543,58.586,149.701,64.302,214.91,17.666l27.74,26.705l-11.195,22.585l150.888,150.844c0,0,32.831,0.388,52.654-22.239
				C503.651,457.873,502.68,431.298,502.68,431.298z M76.01,257.804c-50.195-50.238-50.152-131.56,0.043-181.799
				c50.044-50.174,131.517-50.238,181.799-0.022c50.087,50.26,50.13,131.582-0.108,181.842
				C207.635,307.935,126.205,307.956,76.01,257.804z"/>
		</g>
	</g>
	<g>
	</g>
	<g>
	</g>
	<g>
	</g>
	<g>
	</g>
	<g>
	</g>
	<g>
	</g>
	<g>
	</g>
	<g>
	</g>
	<g>
	</g>
	<g>
	</g>
	<g>
	</g>
	<g>
	</g>
	<g>
	</g>
	<g>
	</g>
	<g>
	</g>
</g>
<g>
</g>
<g>
</g>
<g>
</g>
<g>
</g>
<g>
</g>
<g>
</g>
<g>
</g>
<g>
</g>
<g>
</g>
<g>
</g>
<g>
</g>
<g>
</g>
<g>
</g>
<g>
</g>
<g>
</g>
</svg>
