<svg height="480pt" viewBox="-16 0 480 480.01229" width="480pt" xmlns="http://www.w3.org/2000/svg"><path d="m80.007812 144h144c17.671876 0 32-14.328125 32-32v-32c0-17.671875-14.328124-32-32-32h-144c-17.675781 0-32 14.328125-32 32v32c0 17.671875 14.324219 32 32 32zm-16-64c0-8.835938 7.160157-16 16-16h144c8.835938 0 16 7.164062 16 16v32c0 8.835938-7.164062 16-16 16h-144c-8.839843 0-16-7.164062-16-16zm0 0"/><path d="m88.007812 80h16v16h-16zm0 0"/><path d="m104.007812 96h16v16h-16zm0 0"/><path d="m136.007812 80h16v16h-16zm0 0"/><path d="m152.007812 96h16v16h-16zm0 0"/><path d="m184.007812 80h16v16h-16zm0 0"/><path d="m200.007812 96h16v16h-16zm0 0"/><path d="m440.007812 256h-5.335937c-2.675781 0-5.171875 1.335938-6.65625 3.558594l-20.007813 30.042968-20-30.015624c-1.480468-2.238282-3.984374-3.582032-6.664062-3.585938h-26.671875c-2.675781 0-5.171875 1.335938-6.65625 3.558594l-20.007813 30.042968-20-30.015624c-.972656-1.421876-2.375-2.488282-4-3.042969v-248.542969c0-4.417969-3.582031-8-8-8h-288c-4.421874 0-7.9999995 3.582031-7.9999995 8v355.734375c1.1210935 65.203125 54.7929685 117.207031 119.9999995 116.265625h176c83.90625-.09375 151.90625-68.089844 152-152v-64c0-4.417969-3.582031-8-8-8zm-152 208h-168c-56.375.949219-102.890624-43.894531-104-100.265625v-347.734375h272zm144-136c-.089843 71.96875-56.164062 131.441406-128 135.769531v-181.371093l17.34375 26.015624c1.566407 2.101563 4.035157 3.335938 6.65625 3.335938 2.617188 0 5.085938-1.234375 6.65625-3.335938l24.285157-36.414062h18.113281l24.289062 36.441406c1.566407 2.097656 4.035157 3.332032 6.65625 3.332032 2.617188 0 5.085938-1.234376 6.65625-3.332032l17.34375-26.042968zm0 0"/><path d="m64.007812 208h96v16h-96zm0 0"/><path d="m224.007812 208h16v16h-16zm0 0"/><path d="m64.007812 240h128v16h-128zm0 0"/><path d="m224.007812 240h16v16h-16zm0 0"/><path d="m64.007812 272h112v16h-112zm0 0"/><path d="m224.007812 272h16v16h-16zm0 0"/><path d="m64.007812 304h128v16h-128zm0 0"/><path d="m224.007812 304h16v16h-16zm0 0"/><path d="m88.007812 400h24v16h-24zm0 0"/><path d="m128.007812 400h24v16h-24zm0 0"/><path d="m168.007812 400h24v16h-24zm0 0"/><path d="m208.007812 400h24v16h-24zm0 0"/><path d="m248.007812 400h24v16h-24zm0 0"/><path d="m48.007812 400h24v16h-24zm0 0"/></svg>