<svg xmlns="http://www.w3.org/2000/svg" width="22.917" height="22.917" viewBox="0 0 22.917 22.917">
  <g id="Icon_feather-settings" data-name="Icon feather-settings" transform="translate(-0.5 -0.5)">
    <path id="Path_48105" data-name="Path 48105" d="M19.2,16.352A2.852,2.852,0,1,1,16.352,13.5,2.852,2.852,0,0,1,19.2,16.352Z" transform="translate(-4.394 -4.394)" fill="none" stroke="#4c5350" stroke-linecap="round" stroke-linejoin="round" stroke-width="2"/>
    <path id="Path_48106" data-name="Path 48106" d="M18.994,14.811a1.569,1.569,0,0,0,.314,1.73l.057.057a1.9,1.9,0,1,1-2.691,2.691l-.057-.057a1.582,1.582,0,0,0-2.681,1.122v.162a1.9,1.9,0,1,1-3.8,0V20.43a1.569,1.569,0,0,0-1.027-1.436,1.569,1.569,0,0,0-1.73.314l-.057.057a1.9,1.9,0,1,1-2.691-2.691l.057-.057a1.582,1.582,0,0,0-1.122-2.681H3.4a1.9,1.9,0,1,1,0-3.8h.086A1.569,1.569,0,0,0,4.923,9.106a1.569,1.569,0,0,0-.314-1.73l-.057-.057A1.9,1.9,0,1,1,7.243,4.628l.057.057A1.569,1.569,0,0,0,9.03,5h.076a1.569,1.569,0,0,0,.951-1.436V3.4a1.9,1.9,0,0,1,3.8,0v.086a1.582,1.582,0,0,0,2.681,1.122l.057-.057a1.9,1.9,0,1,1,2.691,2.691l-.057.057a1.569,1.569,0,0,0-.314,1.73v.076a1.569,1.569,0,0,0,1.436.951h.162a1.9,1.9,0,1,1,0,3.8H20.43a1.569,1.569,0,0,0-1.436.951Z" fill="none" stroke="#4c5350" stroke-linecap="round" stroke-linejoin="round" stroke-width="2"/>
  </g>
</svg>
