<svg height="512pt" viewBox="-22 0 512 512.00104" width="512pt" xmlns="http://www.w3.org/2000/svg"><path d="m198.089844 289.835938c3.046875-3.046876 3.046875-7.984376 0-11.03125-3.046875-3.046876-7.988282-3.046876-11.035156 0-5.191407 5.191406-12.097657 8.054687-19.441407 8.054687s-14.25-2.863281-19.441406-8.054687c-3.046875-3.046876-7.988281-3.046876-11.03125 0-3.050781 3.046874-3.050781 7.984374-.003906 11.03125 8.140625 8.140624 18.964843 12.625 30.476562 12.625 11.515625 0 22.335938-4.484376 30.476563-12.625zm0 0"/><path d="m214.164062 243.21875c4.308594 0 7.800782-3.492188 7.800782-7.800781v-23.75c0-4.308594-3.492188-7.800781-7.800782-7.800781-4.3125 0-7.804687 3.492187-7.804687 7.800781v23.75c0 4.308593 3.492187 7.800781 7.804687 7.800781zm0 0"/><path d="m121.0625 203.867188c-4.308594 0-7.800781 3.492187-7.800781 7.800781v23.75c0 4.308593 3.492187 7.800781 7.800781 7.800781s7.800781-3.492188 7.800781-7.800781v-23.75c0-4.308594-3.492187-7.800781-7.800781-7.800781zm0 0"/><path d="m208.269531 374.964844h-7.542969v-14.320313c43.164063-13.265625 75.386719-51.746093 79.394532-98.175781 2.695312.476562 5.441406.730469 8.230468.730469 25.847657 0 46.875-21.027344 46.875-46.875 0-7.621094-1.847656-15.019531-5.300781-21.640625 27.800781-8.695313 34.867188-25.492188 34.867188-47.148438 0-4.308594-3.492188-7.800781-7.804688-7.800781h-76.441406v-72.382813c0-37.136718-30.214844-67.351562-67.351563-67.351562h-91.164062c-37.136719 0-67.351562 30.214844-67.351562 67.351562v7.691407c0 4.3125 3.492187 7.804687 7.800781 7.804687 4.308593 0 7.800781-3.492187 7.800781-7.804687v-7.691407c0-28.535156 23.214844-51.746093 51.75-51.746093h11.558594c-14.835938 12.363281-24.296875 30.964843-24.296875 51.742187v72.386719h-39.011719v-33.480469c0-4.308594-3.492188-7.800781-7.800781-7.800781-4.308594 0-7.800781 3.492187-7.800781 7.800781l-.003907 63.851563c-2.558593-.429688-5.160156-.65625-7.800781-.65625-25.847656 0-46.875 21.027343-46.875 46.875 0 25.847656 21.027344 46.875 46.875 46.875 2.789062 0 5.53125-.253907 8.226562-.730469 2.257813 26.46875 13.648438 51.054688 32.652344 70.058594 13.277344 13.277344 29.277344 22.835937 46.742188 28.167968v14.269532h-7.542969c-27.199219 0-49.328125 22.128906-49.328125 49.332031v79.902344c0 4.308593 3.492188 7.800781 7.800781 7.800781h164.363281c4.308594 0 7.800782-3.492188 7.800782-7.800781v-79.902344c0-27.203125-22.125-49.332031-49.320313-49.332031zm111.351563-158.640625c0 17.242187-14.027344 31.269531-31.269532 31.269531-2.667968 0-5.277343-.328125-7.800781-.980469v-45.453125c12.949219-.269531 24-1.214844 33.402344-2.78125 3.675781 5.230469 5.667969 11.46875 5.667969 17.945313zm18.9375-42.683594c-11.328125 8.070313-32.855469 11.996094-65.8125 11.996094-67.164063 0-112.449219-15.804688-124.953125-30.296875h200.964843c-1.066406 8.589844-4.195312 14.019531-10.199218 18.300781zm-213.664063-106.292969c0-26.4375 19.941407-48.296875 45.574219-51.359375 25.628906 3.066407 45.5625 24.925781 45.5625 51.363281v48.265626c0 4.308593 3.492188 7.804687 7.804688 7.804687 4.308593 0 7.800781-3.496094 7.800781-7.804687v-48.265626c0-20.777343-9.460938-39.382812-24.296875-51.746093h5.851562.015625c28.527344.003906 51.734375 23.214843 51.734375 51.746093v72.378907h-140.046875zm-37.78125 87.992188v16.777344c0 10.859374-7.0625 20.089843-16.832031 23.363281v-40.144531h16.832031zm-71.507812 60.984375c0-17.242188 14.027343-31.269531 31.269531-31.269531 2.667969 0 5.277344.332031 7.800781.980468v60.578125c-2.523437.652344-5.132812.984375-7.800781.984375-17.242188-.003906-31.269531-14.03125-31.269531-31.273437zm54.675781 36.347656v-41.082031c18.464844-3.640625 32.4375-19.953125 32.4375-39.46875v-16.78125h27.265625c3.425781 10.140625 14.558594 22.15625 43.921875 32.046875 24.65625 8.308593 56.738281 13.136719 91.039062 13.777343v51.507813c0 53.667969-43.664062 97.328125-97.335937 97.328125-25.996094 0-50.4375-10.125-68.820313-28.507812-18.386718-18.382813-28.507812-42.824219-28.507812-68.820313zm97.324219 112.929687c5.957031 0 11.808593-.464843 17.519531-1.359374v16.101562c0 .542969-.035156 1.082031-.082031 1.613281-.007813.0625-.007813.125-.011719.1875-.90625 8.8125-8.371094 15.707031-17.414062 15.707031-9.046876 0-16.515626-6.890624-17.425782-15.699218-.003906-.066406-.003906-.136719-.011718-.203125-.046876-.53125-.082032-1.0625-.082032-1.605469v-16.085938c5.742188.886719 11.589844 1.34375 17.507813 1.34375zm74.378906 130.792969h-148.757813v-72.097656c0-18.597656 15.128907-33.726563 33.726563-33.726563h9.164063c4.320312 13.265626 16.804687 22.886719 31.5 22.886719 14.6875 0 27.167968-9.621093 31.488281-22.886719h9.164062c18.589844 0 33.714844 15.128907 33.714844 33.726563zm0 0"/><path d="m460.550781 312.214844c4.308594 0 7.800781-3.496094 7.800781-7.804688v-33.644531c0-4.308594-3.492187-7.800781-7.800781-7.800781h-145.507812c-4.3125 0-7.804688 3.492187-7.804688 7.800781v128.644531c0 4.308594 3.492188 7.804688 7.804688 7.804688h6.460937c-4.179687 5.945312-6.640625 13.183594-6.640625 20.988281v6.9375l-30.539062 65.773437c-1.121094 2.414063-.933594 5.238282.5 7.480469 1.433593 2.246094 3.914062 3.605469 6.574219 3.605469h49.933593c3.039063 0 5.796875-1.761719 7.078125-4.515625l29.164063-62.820313h30.390625c14.628906 0 26.527344-11.898437 26.527344-26.527343 0-3.894531-.851563-7.589844-2.363282-10.921875h28.421875c4.308594 0 7.800781-3.496094 7.800781-7.804688v-63.789062c0-4.308594-3.492187-7.800782-7.800781-7.800782-4.3125 0-7.804687 3.492188-7.804687 7.800782v55.988281h-129.902344v-113.042969h31.648438v53.667969c0 2.773437 1.46875 5.335937 3.867187 6.738281 2.394531 1.398438 5.351563 1.417969 7.765625.058594l21.671875-12.226562 21.667969 12.226562c1.191406.671875 2.511718 1.003906 3.835937 1.003906 1.359375 0 2.71875-.355468 3.933594-1.0625 2.394531-1.398437 3.867187-3.964844 3.867187-6.738281v-53.667969h31.644532v25.847656c0 4.308594 3.492187 7.800782 7.804687 7.800782zm-124.199219 184.179687h-32.726562l24.019531-51.730469h32.726563zm71.613282-89.179687c6.023437 0 10.921875 4.898437 10.921875 10.921875 0 6.023437-4.898438 10.921875-10.921875 10.921875h-77.5v-.855469c0-11.574219 9.417968-20.988281 20.988281-20.988281zm-2.46875-88.339844-13.867188-7.824219c-1.191406-.667969-2.511718-1.003906-3.835937-1.003906-1.320313 0-2.640625.335937-3.832031 1.003906l-13.867188 7.824219v-40.308594h35.402344zm0 0"/></svg>